<svg width="231" height="56" viewBox="0 0 231 56" fill="none" xmlns="http://www.w3.org/2000/svg">
<path d="M13.3014 25.6543H11.0375C8.13491 25.6543 5.75483 24.7587 3.8972 22.9964C1.9525 20.9741 0.965637 18.4896 0.965637 15.6006V3.29346C0.965637 2.39787 1.28492 1.61784 1.9525 0.98226C2.62009 0.31779 3.37475 0 4.27453 0C5.23237 0 6.01606 0.31779 6.65462 0.98226C7.3222 1.61784 7.67051 2.39787 7.67051 3.29346V15.6006C7.67051 16.2362 7.78661 16.9295 8.04784 17.6518C8.59932 18.5185 9.49911 18.9807 10.8343 18.9807H11.9082H33.2999C36.2315 18.9807 38.6116 19.8763 40.4402 21.6386C42.3849 23.6609 43.3718 26.1454 43.3718 29.0344V52.5798C43.3718 53.4754 43.0525 54.2265 42.3849 54.891C41.7463 55.5266 40.9627 55.8733 40.0919 55.8733C39.1341 55.8733 38.3213 55.5266 37.6828 54.891C37.0152 54.2265 36.6959 53.4754 36.6959 52.5798V29.0344C36.6959 28.3989 36.5508 27.7055 36.3186 27.0121C35.7671 26.1166 34.8383 25.6543 33.5322 25.6543H13.3014Z" fill="#1F1B20"/>
<path d="M7.67047 42.4974V52.58C7.67047 53.4756 7.32217 54.2267 6.68361 54.8912C6.01603 55.5556 5.23235 55.8734 4.36159 55.8734C3.40376 55.8734 2.59105 55.5556 1.9525 54.8912C1.28492 54.2267 0.965637 53.4756 0.965637 52.58V42.4974V33.0792C0.965637 32.1836 1.28492 31.4325 1.9525 30.768C2.59105 30.1036 3.37473 29.7858 4.27452 29.7858C5.23235 29.7858 6.01603 30.1036 6.68361 30.768C7.32217 31.4325 7.67047 32.1836 7.67047 33.0792V42.4974Z" fill="#1F1B20"/>
<path d="M222.459 25.6537H226.725C227.625 25.6537 228.409 25.3359 229.047 24.6714C229.715 24.0359 230.034 23.2269 230.034 22.2736C230.034 21.378 229.715 20.5979 229.047 19.9624C228.409 19.2979 227.625 18.9801 226.725 18.9801H222.459H207.104C204.202 18.9801 201.793 19.9046 199.877 21.7247C197.99 23.6025 197.032 26.0293 197.032 29.0338V52.5792C197.032 53.4748 197.352 54.2548 198.019 54.8904C198.658 55.5548 199.471 55.8726 200.428 55.8726C201.299 55.8726 202.083 55.5548 202.75 54.8904C203.389 54.2548 203.737 53.4748 203.737 52.5792V29.0338C203.737 26.7804 204.811 25.6537 207.017 25.6537H222.459Z" fill="#1F1B20"/>
<path d="M107.141 43.7974V52.58C107.141 53.4756 106.821 54.2267 106.154 54.8912C105.515 55.5556 104.732 55.8734 103.832 55.8734C102.903 55.8734 102.09 55.5556 101.452 54.8912C100.784 54.2267 100.465 53.4756 100.465 52.58V43.7974V33.0792C100.465 32.1836 100.784 31.4325 101.452 30.768C102.09 30.1036 102.874 29.7858 103.745 29.7858C104.702 29.7858 105.515 30.1036 106.154 30.768C106.821 31.4325 107.141 32.1836 107.141 33.0792V43.7974Z" fill="#1F1B20"/>
<path d="M108.04 25.6537H103.745C102.874 25.6537 102.09 25.3359 101.452 24.6714C100.784 24.0359 100.465 23.2269 100.465 22.2736C100.465 21.378 100.784 20.5979 101.452 19.9624C102.09 19.2979 102.874 18.9801 103.745 18.9801H108.04H129.838C132.741 18.9801 135.15 19.9046 137.066 21.7247C138.952 23.6025 139.91 26.0293 139.91 29.0338V52.5792C139.91 53.4748 139.591 54.2259 138.923 54.8904C138.285 55.5259 137.472 55.8726 136.514 55.8726C135.615 55.8726 134.86 55.5259 134.192 54.8904C133.554 54.2259 133.234 53.4748 133.234 52.5792V29.0338C133.234 26.7804 132.131 25.6537 129.926 25.6537H108.04Z" fill="#1F1B20"/>
<path d="M63.5158 55.8726H60.6422C57.7397 55.8726 55.2725 54.8904 53.2698 52.9258C51.4702 51.0769 50.5994 48.7079 50.5994 45.8189V29.0338C50.5994 26.4915 51.3251 24.2959 52.8054 22.4758C54.663 20.1357 57.2172 18.9801 60.5552 18.9801H79.6829H83.195C86.0976 18.9801 88.5647 19.9624 90.5965 21.9269C92.3671 23.747 93.2668 26.1448 93.2668 29.0338V32.7029V45.8767C93.2668 48.3901 92.5122 50.5569 91.0319 52.3769C89.1162 54.717 86.5039 55.8726 83.195 55.8726H60.6422H63.5158ZM57.2753 42.121V46.0211C57.2753 47.3212 57.7107 48.2457 58.6105 48.7946C59.3361 49.0546 60.0037 49.199 60.6422 49.199H63.5158H83.3111C84.6753 49.199 85.6332 48.7368 86.1846 47.8412C86.4459 47.1478 86.562 46.4545 86.562 45.8189V32.7029V28.8316C86.562 27.5315 86.1266 26.5782 85.2268 26.0582C84.5302 25.7981 83.8336 25.6537 83.195 25.6537H79.6829H60.4391C59.1329 25.6537 58.2041 26.1159 57.6526 27.0115C57.3914 27.7049 57.2753 28.3982 57.2753 29.0338V46.0211V42.121Z" fill="#1F1B20"/>
<path d="M160.083 55.8726H157.239C154.307 55.8726 151.84 54.8904 149.837 52.9258C148.038 51.0769 147.167 48.7079 147.167 45.8189V29.0338C147.167 26.4915 147.892 24.2959 149.373 22.4758C151.23 20.1357 153.814 18.9801 157.123 18.9801H176.25H179.762C182.665 18.9801 185.132 19.9624 187.164 21.9269C188.934 23.747 189.834 26.1448 189.834 29.0338V32.7029V45.8767C189.834 48.3901 189.08 50.5569 187.599 52.3769C185.684 54.717 183.071 55.8726 179.762 55.8726H157.239H160.083ZM153.843 42.121V46.0211C153.843 47.3212 154.278 48.2457 155.178 48.7946C155.903 49.0546 156.571 49.199 157.239 49.199H160.083H179.878C181.243 49.199 182.201 48.7368 182.752 47.8412C183.013 47.1478 183.129 46.4545 183.129 45.8189V32.7029V28.8316C183.129 27.5315 182.694 26.5782 181.823 26.0582C181.098 25.7981 180.401 25.6537 179.762 25.6537H176.25H157.006C155.7 25.6537 154.771 26.1159 154.22 27.0115C153.959 27.7049 153.843 28.3982 153.843 29.0338V46.0211V42.121Z" fill="#1F1B20"/>
</svg>
